<mxfile host="app.diagrams.net" agent="Mozilla/5.0 (Windows NT 10.0; Win64; x64) AppleWebKit/537.36 (KHTML, like Gecko) Chrome/136.0.0.0 Safari/537.36" version="27.0.6">
  <diagram name="Page-1" id="uuy-AkVkMZGXmjuTcdRW">
    <mxGraphModel dx="2852" dy="1566" grid="1" gridSize="10" guides="1" tooltips="1" connect="1" arrows="1" fold="1" page="1" pageScale="1" pageWidth="850" pageHeight="1100" math="0" shadow="0">
      <root>
        <mxCell id="0" />
        <mxCell id="1" parent="0" />
        <mxCell id="6-W-IEKvUWJ2ygRnt0c9-2" value="Bill" style="swimlane;fontStyle=1;align=center;verticalAlign=top;childLayout=stackLayout;horizontal=1;startSize=26;horizontalStack=0;resizeParent=1;resizeParentMax=0;resizeLast=0;collapsible=1;marginBottom=0;whiteSpace=wrap;html=1;" vertex="1" parent="1">
          <mxGeometry x="620" y="680" width="160" height="88" as="geometry" />
        </mxCell>
        <mxCell id="6-W-IEKvUWJ2ygRnt0c9-3" value="- id: int&lt;div&gt;- orderId: int&lt;/div&gt;&lt;div&gt;- totalPrice: double&lt;/div&gt;" style="text;strokeColor=none;fillColor=none;align=left;verticalAlign=top;spacingLeft=4;spacingRight=4;overflow=hidden;rotatable=0;points=[[0,0.5],[1,0.5]];portConstraint=eastwest;whiteSpace=wrap;html=1;" vertex="1" parent="6-W-IEKvUWJ2ygRnt0c9-2">
          <mxGeometry y="26" width="160" height="54" as="geometry" />
        </mxCell>
        <mxCell id="6-W-IEKvUWJ2ygRnt0c9-4" value="" style="line;strokeWidth=1;fillColor=none;align=left;verticalAlign=middle;spacingTop=-1;spacingLeft=3;spacingRight=3;rotatable=0;labelPosition=right;points=[];portConstraint=eastwest;strokeColor=inherit;" vertex="1" parent="6-W-IEKvUWJ2ygRnt0c9-2">
          <mxGeometry y="80" width="160" height="8" as="geometry" />
        </mxCell>
        <mxCell id="6-W-IEKvUWJ2ygRnt0c9-138" value="" style="endArrow=open;endSize=12;html=1;rounded=0;exitX=0.659;exitY=1.08;exitDx=0;exitDy=0;exitPerimeter=0;entryX=0.458;entryY=0;entryDx=0;entryDy=0;entryPerimeter=0;" edge="1" parent="6-W-IEKvUWJ2ygRnt0c9-2" target="6-W-IEKvUWJ2ygRnt0c9-10">
          <mxGeometry width="160" relative="1" as="geometry">
            <mxPoint x="632" y="-100" as="sourcePoint" />
            <mxPoint x="10" y="114" as="targetPoint" />
            <Array as="points">
              <mxPoint x="632" y="-5" />
              <mxPoint x="-500" y="-30" />
            </Array>
          </mxGeometry>
        </mxCell>
        <mxCell id="6-W-IEKvUWJ2ygRnt0c9-6" value="Client" style="swimlane;fontStyle=1;align=center;verticalAlign=top;childLayout=stackLayout;horizontal=1;startSize=26;horizontalStack=0;resizeParent=1;resizeParentMax=0;resizeLast=0;collapsible=1;marginBottom=0;whiteSpace=wrap;html=1;" vertex="1" parent="1">
          <mxGeometry x="360" y="780" width="240" height="230" as="geometry" />
        </mxCell>
        <mxCell id="6-W-IEKvUWJ2ygRnt0c9-7" value="- id: int&lt;div&gt;- name: String&lt;/div&gt;&lt;div&gt;- address: String&lt;/div&gt;&lt;div&gt;- email: String&lt;/div&gt;&lt;div&gt;- age: int&lt;/div&gt;" style="text;strokeColor=none;fillColor=none;align=left;verticalAlign=top;spacingLeft=4;spacingRight=4;overflow=hidden;rotatable=0;points=[[0,0.5],[1,0.5]];portConstraint=eastwest;whiteSpace=wrap;html=1;" vertex="1" parent="6-W-IEKvUWJ2ygRnt0c9-6">
          <mxGeometry y="26" width="240" height="84" as="geometry" />
        </mxCell>
        <mxCell id="6-W-IEKvUWJ2ygRnt0c9-8" value="" style="line;strokeWidth=1;fillColor=none;align=left;verticalAlign=middle;spacingTop=-1;spacingLeft=3;spacingRight=3;rotatable=0;labelPosition=right;points=[];portConstraint=eastwest;strokeColor=inherit;" vertex="1" parent="6-W-IEKvUWJ2ygRnt0c9-6">
          <mxGeometry y="110" width="240" height="8" as="geometry" />
        </mxCell>
        <mxCell id="6-W-IEKvUWJ2ygRnt0c9-9" value="+ Client()&lt;div&gt;+ Client(id: int, name: String, address: String, email: String, age: int)&lt;/div&gt;&lt;div&gt;+ Client(name: String, address: String, email: String, age: int)&lt;/div&gt;&lt;div&gt;+getters()&lt;/div&gt;&lt;div&gt;+setters()&lt;/div&gt;" style="text;strokeColor=none;fillColor=none;align=left;verticalAlign=top;spacingLeft=4;spacingRight=4;overflow=hidden;rotatable=0;points=[[0,0.5],[1,0.5]];portConstraint=eastwest;whiteSpace=wrap;html=1;" vertex="1" parent="6-W-IEKvUWJ2ygRnt0c9-6">
          <mxGeometry y="118" width="240" height="112" as="geometry" />
        </mxCell>
        <mxCell id="6-W-IEKvUWJ2ygRnt0c9-10" value="Product" style="swimlane;fontStyle=1;align=center;verticalAlign=top;childLayout=stackLayout;horizontal=1;startSize=26;horizontalStack=0;resizeParent=1;resizeParentMax=0;resizeLast=0;collapsible=1;marginBottom=0;whiteSpace=wrap;html=1;" vertex="1" parent="1">
          <mxGeometry x="10" y="760" width="240" height="220" as="geometry" />
        </mxCell>
        <mxCell id="6-W-IEKvUWJ2ygRnt0c9-11" value="- id: int&lt;div&gt;- name: String&lt;/div&gt;&lt;div&gt;- price: double&lt;/div&gt;&lt;div&gt;- quantity: int&lt;/div&gt;&lt;div&gt;&lt;br&gt;&lt;/div&gt;" style="text;strokeColor=none;fillColor=none;align=left;verticalAlign=top;spacingLeft=4;spacingRight=4;overflow=hidden;rotatable=0;points=[[0,0.5],[1,0.5]];portConstraint=eastwest;whiteSpace=wrap;html=1;" vertex="1" parent="6-W-IEKvUWJ2ygRnt0c9-10">
          <mxGeometry y="26" width="240" height="74" as="geometry" />
        </mxCell>
        <mxCell id="6-W-IEKvUWJ2ygRnt0c9-12" value="" style="line;strokeWidth=1;fillColor=none;align=left;verticalAlign=middle;spacingTop=-1;spacingLeft=3;spacingRight=3;rotatable=0;labelPosition=right;points=[];portConstraint=eastwest;strokeColor=inherit;" vertex="1" parent="6-W-IEKvUWJ2ygRnt0c9-10">
          <mxGeometry y="100" width="240" height="8" as="geometry" />
        </mxCell>
        <mxCell id="6-W-IEKvUWJ2ygRnt0c9-13" value="+ Product()&lt;div&gt;+ Product(id: int, name: String, price: double, quantity: int)&lt;/div&gt;&lt;div&gt;+ Product(name: String, price: double, quantity: int)&lt;/div&gt;&lt;div&gt;+getters()&lt;/div&gt;&lt;div&gt;+setters()&lt;/div&gt;" style="text;strokeColor=none;fillColor=none;align=left;verticalAlign=top;spacingLeft=4;spacingRight=4;overflow=hidden;rotatable=0;points=[[0,0.5],[1,0.5]];portConstraint=eastwest;whiteSpace=wrap;html=1;" vertex="1" parent="6-W-IEKvUWJ2ygRnt0c9-10">
          <mxGeometry y="108" width="240" height="112" as="geometry" />
        </mxCell>
        <mxCell id="6-W-IEKvUWJ2ygRnt0c9-14" value="Orders" style="swimlane;fontStyle=1;align=center;verticalAlign=top;childLayout=stackLayout;horizontal=1;startSize=26;horizontalStack=0;resizeParent=1;resizeParentMax=0;resizeLast=0;collapsible=1;marginBottom=0;whiteSpace=wrap;html=1;" vertex="1" parent="1">
          <mxGeometry x="90" y="1030" width="240" height="220" as="geometry" />
        </mxCell>
        <mxCell id="6-W-IEKvUWJ2ygRnt0c9-15" value="- id: int&lt;div&gt;- clientId: int&lt;/div&gt;&lt;div&gt;- productId: int&lt;/div&gt;&lt;div&gt;- quantity: int&lt;/div&gt;&lt;div&gt;&lt;br&gt;&lt;/div&gt;" style="text;strokeColor=none;fillColor=none;align=left;verticalAlign=top;spacingLeft=4;spacingRight=4;overflow=hidden;rotatable=0;points=[[0,0.5],[1,0.5]];portConstraint=eastwest;whiteSpace=wrap;html=1;" vertex="1" parent="6-W-IEKvUWJ2ygRnt0c9-14">
          <mxGeometry y="26" width="240" height="74" as="geometry" />
        </mxCell>
        <mxCell id="6-W-IEKvUWJ2ygRnt0c9-16" value="" style="line;strokeWidth=1;fillColor=none;align=left;verticalAlign=middle;spacingTop=-1;spacingLeft=3;spacingRight=3;rotatable=0;labelPosition=right;points=[];portConstraint=eastwest;strokeColor=inherit;" vertex="1" parent="6-W-IEKvUWJ2ygRnt0c9-14">
          <mxGeometry y="100" width="240" height="8" as="geometry" />
        </mxCell>
        <mxCell id="6-W-IEKvUWJ2ygRnt0c9-17" value="+ Orders()&lt;div&gt;+ Orders(id: int, clientId: int, productId: int, quantity: int)&lt;/div&gt;&lt;div&gt;+ Orders(clientId: int, productId: int, quantity: int)&lt;/div&gt;&lt;div&gt;+getters()&lt;/div&gt;&lt;div&gt;+setters()&lt;/div&gt;" style="text;strokeColor=none;fillColor=none;align=left;verticalAlign=top;spacingLeft=4;spacingRight=4;overflow=hidden;rotatable=0;points=[[0,0.5],[1,0.5]];portConstraint=eastwest;whiteSpace=wrap;html=1;" vertex="1" parent="6-W-IEKvUWJ2ygRnt0c9-14">
          <mxGeometry y="108" width="240" height="112" as="geometry" />
        </mxCell>
        <mxCell id="6-W-IEKvUWJ2ygRnt0c9-18" value="BillsController" style="swimlane;fontStyle=1;align=center;verticalAlign=top;childLayout=stackLayout;horizontal=1;startSize=26;horizontalStack=0;resizeParent=1;resizeParentMax=0;resizeLast=0;collapsible=1;marginBottom=0;whiteSpace=wrap;html=1;" vertex="1" parent="1">
          <mxGeometry x="2060" y="780" width="280" height="160" as="geometry" />
        </mxCell>
        <mxCell id="6-W-IEKvUWJ2ygRnt0c9-19" value="- backButton: Button&lt;div&gt;- billsTableView: TabelView&amp;lt;Bill&amp;gt;&lt;/div&gt;&lt;div&gt;- billBLL: BillBLL&lt;/div&gt;" style="text;strokeColor=none;fillColor=none;align=left;verticalAlign=top;spacingLeft=4;spacingRight=4;overflow=hidden;rotatable=0;points=[[0,0.5],[1,0.5]];portConstraint=eastwest;whiteSpace=wrap;html=1;" vertex="1" parent="6-W-IEKvUWJ2ygRnt0c9-18">
          <mxGeometry y="26" width="280" height="54" as="geometry" />
        </mxCell>
        <mxCell id="6-W-IEKvUWJ2ygRnt0c9-20" value="" style="line;strokeWidth=1;fillColor=none;align=left;verticalAlign=middle;spacingTop=-1;spacingLeft=3;spacingRight=3;rotatable=0;labelPosition=right;points=[];portConstraint=eastwest;strokeColor=inherit;" vertex="1" parent="6-W-IEKvUWJ2ygRnt0c9-18">
          <mxGeometry y="80" width="280" height="8" as="geometry" />
        </mxCell>
        <mxCell id="6-W-IEKvUWJ2ygRnt0c9-21" value="- initialize(): void&lt;div&gt;- backButtonOnAction(event: ActionEvent): void&lt;/div&gt;&lt;div&gt;- refreshTable(): void&lt;/div&gt;&lt;div&gt;- loadScene(button: Button, fxmlFile: String): void&lt;/div&gt;" style="text;strokeColor=none;fillColor=none;align=left;verticalAlign=top;spacingLeft=4;spacingRight=4;overflow=hidden;rotatable=0;points=[[0,0.5],[1,0.5]];portConstraint=eastwest;whiteSpace=wrap;html=1;" vertex="1" parent="6-W-IEKvUWJ2ygRnt0c9-18">
          <mxGeometry y="88" width="280" height="72" as="geometry" />
        </mxCell>
        <mxCell id="6-W-IEKvUWJ2ygRnt0c9-22" value="ClientsController" style="swimlane;fontStyle=1;align=center;verticalAlign=top;childLayout=stackLayout;horizontal=1;startSize=26;horizontalStack=0;resizeParent=1;resizeParentMax=0;resizeLast=0;collapsible=1;marginBottom=0;whiteSpace=wrap;html=1;" vertex="1" parent="1">
          <mxGeometry x="790" y="770" width="310" height="330" as="geometry" />
        </mxCell>
        <mxCell id="6-W-IEKvUWJ2ygRnt0c9-23" value="- backButton: Button&lt;div&gt;- addClientButton: Button&lt;/div&gt;&lt;div&gt;- deleteClientButton: Button&lt;/div&gt;&lt;div&gt;- updateClientButton: Button&lt;/div&gt;&lt;div&gt;- nameTextField: TextField&lt;/div&gt;&lt;div&gt;- addressTextField: TextField&lt;/div&gt;&lt;div&gt;- emailTextField: TextField&lt;/div&gt;&lt;div&gt;- ageTextField: TextField&lt;/div&gt;&lt;div&gt;- idTextField: TextField&lt;/div&gt;&lt;div&gt;- clientTableView: TableView&amp;lt;Client&amp;gt;&lt;/div&gt;&lt;div&gt;- clientBLL: ClientBLL&lt;/div&gt;" style="text;strokeColor=none;fillColor=none;align=left;verticalAlign=top;spacingLeft=4;spacingRight=4;overflow=hidden;rotatable=0;points=[[0,0.5],[1,0.5]];portConstraint=eastwest;whiteSpace=wrap;html=1;" vertex="1" parent="6-W-IEKvUWJ2ygRnt0c9-22">
          <mxGeometry y="26" width="310" height="174" as="geometry" />
        </mxCell>
        <mxCell id="6-W-IEKvUWJ2ygRnt0c9-24" value="" style="line;strokeWidth=1;fillColor=none;align=left;verticalAlign=middle;spacingTop=-1;spacingLeft=3;spacingRight=3;rotatable=0;labelPosition=right;points=[];portConstraint=eastwest;strokeColor=inherit;" vertex="1" parent="6-W-IEKvUWJ2ygRnt0c9-22">
          <mxGeometry y="200" width="310" height="8" as="geometry" />
        </mxCell>
        <mxCell id="6-W-IEKvUWJ2ygRnt0c9-25" value="- initialize(): void&lt;div&gt;- backButtonOnAction(event: ActionEvent): void&lt;/div&gt;&lt;div&gt;- addClientButtonOnAction(event: ActionEvent): void&lt;/div&gt;&lt;div&gt;-&amp;nbsp;&lt;span style=&quot;background-color: transparent; color: light-dark(rgb(0, 0, 0), rgb(255, 255, 255));&quot;&gt;updateClientButtonOnAction(event: ActionEvent): void&lt;/span&gt;&lt;/div&gt;&lt;div&gt;&lt;span style=&quot;background-color: transparent; color: light-dark(rgb(0, 0, 0), rgb(255, 255, 255));&quot;&gt;- deleteClientButtonOnActtion(event: ActionEvent): void&lt;/span&gt;&lt;/div&gt;&lt;div&gt;- refreshTable(): void&lt;/div&gt;&lt;div&gt;- loadScene(button: Button, fxmlFile: String): void&lt;/div&gt;&lt;div&gt;- clearInputField(): void&lt;/div&gt;" style="text;strokeColor=none;fillColor=none;align=left;verticalAlign=top;spacingLeft=4;spacingRight=4;overflow=hidden;rotatable=0;points=[[0,0.5],[1,0.5]];portConstraint=eastwest;whiteSpace=wrap;html=1;" vertex="1" parent="6-W-IEKvUWJ2ygRnt0c9-22">
          <mxGeometry y="208" width="310" height="122" as="geometry" />
        </mxCell>
        <mxCell id="6-W-IEKvUWJ2ygRnt0c9-26" value="GenerateTableHeader" style="swimlane;fontStyle=1;align=center;verticalAlign=top;childLayout=stackLayout;horizontal=1;startSize=26;horizontalStack=0;resizeParent=1;resizeParentMax=0;resizeLast=0;collapsible=1;marginBottom=0;whiteSpace=wrap;html=1;" vertex="1" parent="1">
          <mxGeometry x="840" y="1320" width="340" height="70" as="geometry" />
        </mxCell>
        <mxCell id="6-W-IEKvUWJ2ygRnt0c9-28" value="" style="line;strokeWidth=1;fillColor=none;align=left;verticalAlign=middle;spacingTop=-1;spacingLeft=3;spacingRight=3;rotatable=0;labelPosition=right;points=[];portConstraint=eastwest;strokeColor=inherit;" vertex="1" parent="6-W-IEKvUWJ2ygRnt0c9-26">
          <mxGeometry y="26" width="340" height="8" as="geometry" />
        </mxCell>
        <mxCell id="6-W-IEKvUWJ2ygRnt0c9-29" value="+ generateHeader(tableView: TableView&amp;lt;T&amp;gt;, data: List&amp;lt;T&amp;gt;, type: Class&amp;lt;T&amp;gt;): &amp;lt;T&amp;gt; void" style="text;strokeColor=none;fillColor=none;align=left;verticalAlign=top;spacingLeft=4;spacingRight=4;overflow=hidden;rotatable=0;points=[[0,0.5],[1,0.5]];portConstraint=eastwest;whiteSpace=wrap;html=1;" vertex="1" parent="6-W-IEKvUWJ2ygRnt0c9-26">
          <mxGeometry y="34" width="340" height="36" as="geometry" />
        </mxCell>
        <mxCell id="6-W-IEKvUWJ2ygRnt0c9-30" value="HomePageController" style="swimlane;fontStyle=1;align=center;verticalAlign=top;childLayout=stackLayout;horizontal=1;startSize=26;horizontalStack=0;resizeParent=1;resizeParentMax=0;resizeLast=0;collapsible=1;marginBottom=0;whiteSpace=wrap;html=1;" vertex="1" parent="1">
          <mxGeometry x="1530" y="1310" width="280" height="180" as="geometry" />
        </mxCell>
        <mxCell id="6-W-IEKvUWJ2ygRnt0c9-31" value="- manageClientsButton: Button&lt;div&gt;- manageProductsButton: Button&lt;/div&gt;&lt;div&gt;- manageOrdersButton: Button&lt;/div&gt;&lt;div&gt;- viewBillsButton: Button&lt;/div&gt;" style="text;strokeColor=none;fillColor=none;align=left;verticalAlign=top;spacingLeft=4;spacingRight=4;overflow=hidden;rotatable=0;points=[[0,0.5],[1,0.5]];portConstraint=eastwest;whiteSpace=wrap;html=1;" vertex="1" parent="6-W-IEKvUWJ2ygRnt0c9-30">
          <mxGeometry y="26" width="280" height="64" as="geometry" />
        </mxCell>
        <mxCell id="6-W-IEKvUWJ2ygRnt0c9-32" value="" style="line;strokeWidth=1;fillColor=none;align=left;verticalAlign=middle;spacingTop=-1;spacingLeft=3;spacingRight=3;rotatable=0;labelPosition=right;points=[];portConstraint=eastwest;strokeColor=inherit;" vertex="1" parent="6-W-IEKvUWJ2ygRnt0c9-30">
          <mxGeometry y="90" width="280" height="8" as="geometry" />
        </mxCell>
        <mxCell id="6-W-IEKvUWJ2ygRnt0c9-33" value="- manageClientsButtonOnAction(): void&lt;div&gt;- manageProductsButtonOnAction(): void&lt;/div&gt;&lt;div&gt;- managOrdersButtonOnAction(): void&lt;/div&gt;&lt;div&gt;- viewBillsButtonOnAction(): void&lt;br&gt;&lt;div&gt;- loadScene(button: Button, fxmlFile: String): void&lt;/div&gt;&lt;/div&gt;" style="text;strokeColor=none;fillColor=none;align=left;verticalAlign=top;spacingLeft=4;spacingRight=4;overflow=hidden;rotatable=0;points=[[0,0.5],[1,0.5]];portConstraint=eastwest;whiteSpace=wrap;html=1;" vertex="1" parent="6-W-IEKvUWJ2ygRnt0c9-30">
          <mxGeometry y="98" width="280" height="82" as="geometry" />
        </mxCell>
        <mxCell id="6-W-IEKvUWJ2ygRnt0c9-34" value="OrdersController" style="swimlane;fontStyle=1;align=center;verticalAlign=top;childLayout=stackLayout;horizontal=1;startSize=26;horizontalStack=0;resizeParent=1;resizeParentMax=0;resizeLast=0;collapsible=1;marginBottom=0;whiteSpace=wrap;html=1;" vertex="1" parent="1">
          <mxGeometry x="1700" y="750" width="300" height="350" as="geometry" />
        </mxCell>
        <mxCell id="6-W-IEKvUWJ2ygRnt0c9-35" value="- backButton: Button&lt;div&gt;- addOrderButton: Button&lt;/div&gt;&lt;div&gt;- deleteOrderButton: Button&lt;/div&gt;&lt;div&gt;- clientidTextField: TextField&lt;/div&gt;&lt;div&gt;- productIdTextField: TextField&lt;/div&gt;&lt;div&gt;- quantityTextField: TextField&lt;/div&gt;&lt;div&gt;- orderIdTextField: TextField&lt;/div&gt;&lt;div&gt;- ordersTableView: TableView&amp;lt;Orders&amp;gt;&lt;/div&gt;&lt;div&gt;- errorLabel: Label&lt;/div&gt;&lt;div&gt;- orderBLL: OrderBLL&lt;/div&gt;&lt;div&gt;- clientBLL: ClientBLL&lt;/div&gt;&lt;div&gt;- productBLL: ProductBLL&lt;/div&gt;&lt;div&gt;- billBLL: BillBLL&lt;/div&gt;" style="text;strokeColor=none;fillColor=none;align=left;verticalAlign=top;spacingLeft=4;spacingRight=4;overflow=hidden;rotatable=0;points=[[0,0.5],[1,0.5]];portConstraint=eastwest;whiteSpace=wrap;html=1;" vertex="1" parent="6-W-IEKvUWJ2ygRnt0c9-34">
          <mxGeometry y="26" width="300" height="194" as="geometry" />
        </mxCell>
        <mxCell id="6-W-IEKvUWJ2ygRnt0c9-36" value="" style="line;strokeWidth=1;fillColor=none;align=left;verticalAlign=middle;spacingTop=-1;spacingLeft=3;spacingRight=3;rotatable=0;labelPosition=right;points=[];portConstraint=eastwest;strokeColor=inherit;" vertex="1" parent="6-W-IEKvUWJ2ygRnt0c9-34">
          <mxGeometry y="220" width="300" height="8" as="geometry" />
        </mxCell>
        <mxCell id="6-W-IEKvUWJ2ygRnt0c9-37" value="- initialize(): void&lt;div&gt;- backButtonOnAction(event: ActionEvent): void&lt;/div&gt;&lt;div&gt;- addOrderButtonOnAction(event: ActionEvent): void&lt;/div&gt;&lt;div&gt;- deleteOrderButtonOnAction(event: ActionEvent): void&lt;/div&gt;&lt;div&gt;- refreshTable(): void&lt;/div&gt;&lt;div&gt;-clearInputFields(): void&lt;/div&gt;&lt;div&gt;- loadScene(button: Button, fxmlFile: String): void&lt;/div&gt;" style="text;strokeColor=none;fillColor=none;align=left;verticalAlign=top;spacingLeft=4;spacingRight=4;overflow=hidden;rotatable=0;points=[[0,0.5],[1,0.5]];portConstraint=eastwest;whiteSpace=wrap;html=1;" vertex="1" parent="6-W-IEKvUWJ2ygRnt0c9-34">
          <mxGeometry y="228" width="300" height="122" as="geometry" />
        </mxCell>
        <mxCell id="6-W-IEKvUWJ2ygRnt0c9-38" value="ProductsController" style="swimlane;fontStyle=1;align=center;verticalAlign=top;childLayout=stackLayout;horizontal=1;startSize=26;horizontalStack=0;resizeParent=1;resizeParentMax=0;resizeLast=0;collapsible=1;marginBottom=0;whiteSpace=wrap;html=1;" vertex="1" parent="1">
          <mxGeometry x="1220" y="770" width="360" height="330" as="geometry" />
        </mxCell>
        <mxCell id="6-W-IEKvUWJ2ygRnt0c9-39" value="- backButton: Button&lt;div&gt;- addProductButton: Button&lt;/div&gt;&lt;div&gt;&lt;span style=&quot;background-color: transparent; color: light-dark(rgb(0, 0, 0), rgb(255, 255, 255));&quot;&gt;- deleteProductButton: Button&lt;/span&gt;&lt;/div&gt;&lt;div&gt;&lt;span style=&quot;background-color: transparent; color: light-dark(rgb(0, 0, 0), rgb(255, 255, 255));&quot;&gt;- updateProductButton: Button&lt;/span&gt;&lt;/div&gt;&lt;div&gt;- quantityTextField: TextField&lt;/div&gt;&lt;div&gt;- addressTextField: TextField&lt;/div&gt;&lt;div&gt;- nameTextField: TextField&lt;/div&gt;&lt;div&gt;- priceTextField: TextField&lt;/div&gt;&lt;div&gt;- idTextField: TextField&lt;/div&gt;&lt;div&gt;- productTableView: TableView&amp;lt;Product&amp;gt;&lt;/div&gt;&lt;div&gt;- procutBLL: productBLL&lt;/div&gt;" style="text;strokeColor=none;fillColor=none;align=left;verticalAlign=top;spacingLeft=4;spacingRight=4;overflow=hidden;rotatable=0;points=[[0,0.5],[1,0.5]];portConstraint=eastwest;whiteSpace=wrap;html=1;" vertex="1" parent="6-W-IEKvUWJ2ygRnt0c9-38">
          <mxGeometry y="26" width="360" height="174" as="geometry" />
        </mxCell>
        <mxCell id="6-W-IEKvUWJ2ygRnt0c9-40" value="" style="line;strokeWidth=1;fillColor=none;align=left;verticalAlign=middle;spacingTop=-1;spacingLeft=3;spacingRight=3;rotatable=0;labelPosition=right;points=[];portConstraint=eastwest;strokeColor=inherit;" vertex="1" parent="6-W-IEKvUWJ2ygRnt0c9-38">
          <mxGeometry y="200" width="360" height="8" as="geometry" />
        </mxCell>
        <mxCell id="6-W-IEKvUWJ2ygRnt0c9-41" value="- initialize(): void&lt;div&gt;- backButtonOnAction(event: ActionEvent): void&lt;/div&gt;&lt;div&gt;- addProductButtonOnAction(event: ActionEvent): void&lt;/div&gt;&lt;div&gt;-&amp;nbsp;&lt;span style=&quot;background-color: transparent; color: light-dark(rgb(0, 0, 0), rgb(255, 255, 255));&quot;&gt;updateProductButtonOnAction(event: ActionEvent): void&lt;/span&gt;&lt;/div&gt;&lt;div&gt;&lt;span style=&quot;background-color: transparent; color: light-dark(rgb(0, 0, 0), rgb(255, 255, 255));&quot;&gt;- deleteProductButtonOnActtion(event: ActionEvent): void&lt;/span&gt;&lt;/div&gt;&lt;div&gt;- refreshTable(): void&lt;/div&gt;&lt;div&gt;- loadScene(button: Button, fxmlFile: String): void&lt;/div&gt;&lt;div&gt;- clearInputField(): void&lt;/div&gt;" style="text;strokeColor=none;fillColor=none;align=left;verticalAlign=top;spacingLeft=4;spacingRight=4;overflow=hidden;rotatable=0;points=[[0,0.5],[1,0.5]];portConstraint=eastwest;whiteSpace=wrap;html=1;" vertex="1" parent="6-W-IEKvUWJ2ygRnt0c9-38">
          <mxGeometry y="208" width="360" height="122" as="geometry" />
        </mxCell>
        <mxCell id="6-W-IEKvUWJ2ygRnt0c9-43" value="ConnectionFactory" style="swimlane;fontStyle=1;align=center;verticalAlign=top;childLayout=stackLayout;horizontal=1;startSize=26;horizontalStack=0;resizeParent=1;resizeParentMax=0;resizeLast=0;collapsible=1;marginBottom=0;whiteSpace=wrap;html=1;" vertex="1" parent="1">
          <mxGeometry x="100" y="200" width="230" height="230" as="geometry" />
        </mxCell>
        <mxCell id="6-W-IEKvUWJ2ygRnt0c9-44" value="- LOGGER: Logger&lt;div&gt;- DRIVER: String&lt;/div&gt;&lt;div&gt;- DBURL: String&lt;/div&gt;&lt;div&gt;- USER: String&lt;/div&gt;&lt;div&gt;- PASS: String&lt;/div&gt;&lt;div&gt;- SingleInstance: ConnectionFactory&lt;/div&gt;" style="text;strokeColor=none;fillColor=none;align=left;verticalAlign=top;spacingLeft=4;spacingRight=4;overflow=hidden;rotatable=0;points=[[0,0.5],[1,0.5]];portConstraint=eastwest;whiteSpace=wrap;html=1;" vertex="1" parent="6-W-IEKvUWJ2ygRnt0c9-43">
          <mxGeometry y="26" width="230" height="104" as="geometry" />
        </mxCell>
        <mxCell id="6-W-IEKvUWJ2ygRnt0c9-45" value="" style="line;strokeWidth=1;fillColor=none;align=left;verticalAlign=middle;spacingTop=-1;spacingLeft=3;spacingRight=3;rotatable=0;labelPosition=right;points=[];portConstraint=eastwest;strokeColor=inherit;" vertex="1" parent="6-W-IEKvUWJ2ygRnt0c9-43">
          <mxGeometry y="130" width="230" height="8" as="geometry" />
        </mxCell>
        <mxCell id="6-W-IEKvUWJ2ygRnt0c9-46" value="- ConnectionFactory()&lt;div&gt;- createConnection(): Connection&lt;/div&gt;&lt;div&gt;+ getConnection(): Connection&lt;/div&gt;&lt;div&gt;+ close(connection: Connection): void&lt;/div&gt;&lt;div&gt;+ close(statement: Statement): void&lt;/div&gt;&lt;div&gt;+ close(resultSet: ResultSet): void&lt;/div&gt;" style="text;strokeColor=none;fillColor=none;align=left;verticalAlign=top;spacingLeft=4;spacingRight=4;overflow=hidden;rotatable=0;points=[[0,0.5],[1,0.5]];portConstraint=eastwest;whiteSpace=wrap;html=1;" vertex="1" parent="6-W-IEKvUWJ2ygRnt0c9-43">
          <mxGeometry y="138" width="230" height="92" as="geometry" />
        </mxCell>
        <mxCell id="6-W-IEKvUWJ2ygRnt0c9-47" value="AbstractDAO&amp;lt;T&amp;gt;" style="swimlane;fontStyle=1;align=center;verticalAlign=top;childLayout=stackLayout;horizontal=1;startSize=26;horizontalStack=0;resizeParent=1;resizeParentMax=0;resizeLast=0;collapsible=1;marginBottom=0;whiteSpace=wrap;html=1;" vertex="1" parent="1">
          <mxGeometry x="430" y="210" width="260" height="210" as="geometry" />
        </mxCell>
        <mxCell id="6-W-IEKvUWJ2ygRnt0c9-48" value="&lt;div&gt;-LOGGER: Logger&lt;/div&gt;&lt;div&gt;- type: Class&amp;lt;T&amp;gt;&lt;/div&gt;" style="text;strokeColor=none;fillColor=none;align=left;verticalAlign=top;spacingLeft=4;spacingRight=4;overflow=hidden;rotatable=0;points=[[0,0.5],[1,0.5]];portConstraint=eastwest;whiteSpace=wrap;html=1;" vertex="1" parent="6-W-IEKvUWJ2ygRnt0c9-47">
          <mxGeometry y="26" width="260" height="34" as="geometry" />
        </mxCell>
        <mxCell id="6-W-IEKvUWJ2ygRnt0c9-49" value="" style="line;strokeWidth=1;fillColor=none;align=left;verticalAlign=middle;spacingTop=-1;spacingLeft=3;spacingRight=3;rotatable=0;labelPosition=right;points=[];portConstraint=eastwest;strokeColor=inherit;" vertex="1" parent="6-W-IEKvUWJ2ygRnt0c9-47">
          <mxGeometry y="60" width="260" height="8" as="geometry" />
        </mxCell>
        <mxCell id="6-W-IEKvUWJ2ygRnt0c9-50" value="+ AbstractDAO()&lt;div&gt;- createSelectQuery(field: String): String&lt;/div&gt;&lt;div&gt;+ findAll(): List&amp;lt;T&amp;gt;&lt;/div&gt;&lt;div&gt;+ findById(id: int): T&lt;/div&gt;&lt;div&gt;+ findByName(name: String): T&lt;/div&gt;&lt;div&gt;- createObjects(resultSet: ResultSet): List&amp;lt;T&amp;gt;&lt;/div&gt;&lt;div&gt;+ insert(object: T): T&lt;/div&gt;&lt;div&gt;+ update(object: T): T&lt;/div&gt;&lt;div&gt;+ delete(object: T): void&lt;/div&gt;" style="text;strokeColor=none;fillColor=none;align=left;verticalAlign=top;spacingLeft=4;spacingRight=4;overflow=hidden;rotatable=0;points=[[0,0.5],[1,0.5]];portConstraint=eastwest;whiteSpace=wrap;html=1;" vertex="1" parent="6-W-IEKvUWJ2ygRnt0c9-47">
          <mxGeometry y="68" width="260" height="142" as="geometry" />
        </mxCell>
        <mxCell id="6-W-IEKvUWJ2ygRnt0c9-51" value="ProductDAO" style="swimlane;fontStyle=1;align=center;verticalAlign=top;childLayout=stackLayout;horizontal=1;startSize=26;horizontalStack=0;resizeParent=1;resizeParentMax=0;resizeLast=0;collapsible=1;marginBottom=0;whiteSpace=wrap;html=1;" vertex="1" parent="1">
          <mxGeometry x="40" y="480" width="160" height="34" as="geometry" />
        </mxCell>
        <mxCell id="6-W-IEKvUWJ2ygRnt0c9-53" value="" style="line;strokeWidth=1;fillColor=none;align=left;verticalAlign=middle;spacingTop=-1;spacingLeft=3;spacingRight=3;rotatable=0;labelPosition=right;points=[];portConstraint=eastwest;strokeColor=inherit;" vertex="1" parent="6-W-IEKvUWJ2ygRnt0c9-51">
          <mxGeometry y="26" width="160" height="8" as="geometry" />
        </mxCell>
        <mxCell id="6-W-IEKvUWJ2ygRnt0c9-55" value="ClientDAO" style="swimlane;fontStyle=1;align=center;verticalAlign=top;childLayout=stackLayout;horizontal=1;startSize=26;horizontalStack=0;resizeParent=1;resizeParentMax=0;resizeLast=0;collapsible=1;marginBottom=0;whiteSpace=wrap;html=1;" vertex="1" parent="1">
          <mxGeometry x="230" y="480" width="160" height="34" as="geometry" />
        </mxCell>
        <mxCell id="6-W-IEKvUWJ2ygRnt0c9-56" value="" style="line;strokeWidth=1;fillColor=none;align=left;verticalAlign=middle;spacingTop=-1;spacingLeft=3;spacingRight=3;rotatable=0;labelPosition=right;points=[];portConstraint=eastwest;strokeColor=inherit;" vertex="1" parent="6-W-IEKvUWJ2ygRnt0c9-55">
          <mxGeometry y="26" width="160" height="8" as="geometry" />
        </mxCell>
        <mxCell id="6-W-IEKvUWJ2ygRnt0c9-57" value="OrderDAO" style="swimlane;fontStyle=1;align=center;verticalAlign=top;childLayout=stackLayout;horizontal=1;startSize=26;horizontalStack=0;resizeParent=1;resizeParentMax=0;resizeLast=0;collapsible=1;marginBottom=0;whiteSpace=wrap;html=1;" vertex="1" parent="1">
          <mxGeometry x="425" y="462" width="220" height="70" as="geometry" />
        </mxCell>
        <mxCell id="6-W-IEKvUWJ2ygRnt0c9-59" value="" style="line;strokeWidth=1;fillColor=none;align=left;verticalAlign=middle;spacingTop=-1;spacingLeft=3;spacingRight=3;rotatable=0;labelPosition=right;points=[];portConstraint=eastwest;strokeColor=inherit;" vertex="1" parent="6-W-IEKvUWJ2ygRnt0c9-57">
          <mxGeometry y="26" width="220" height="8" as="geometry" />
        </mxCell>
        <mxCell id="6-W-IEKvUWJ2ygRnt0c9-60" value="+ update(order: Orders): Orders&lt;div&gt;+ findByName(name: String): Orders&lt;/div&gt;" style="text;strokeColor=none;fillColor=none;align=left;verticalAlign=top;spacingLeft=4;spacingRight=4;overflow=hidden;rotatable=0;points=[[0,0.5],[1,0.5]];portConstraint=eastwest;whiteSpace=wrap;html=1;" vertex="1" parent="6-W-IEKvUWJ2ygRnt0c9-57">
          <mxGeometry y="34" width="220" height="36" as="geometry" />
        </mxCell>
        <mxCell id="6-W-IEKvUWJ2ygRnt0c9-61" value="BillDAO" style="swimlane;fontStyle=1;align=center;verticalAlign=top;childLayout=stackLayout;horizontal=1;startSize=26;horizontalStack=0;resizeParent=1;resizeParentMax=0;resizeLast=0;collapsible=1;marginBottom=0;whiteSpace=wrap;html=1;" vertex="1" parent="1">
          <mxGeometry x="690" y="460" width="220" height="120" as="geometry" />
        </mxCell>
        <mxCell id="6-W-IEKvUWJ2ygRnt0c9-62" value="" style="line;strokeWidth=1;fillColor=none;align=left;verticalAlign=middle;spacingTop=-1;spacingLeft=3;spacingRight=3;rotatable=0;labelPosition=right;points=[];portConstraint=eastwest;strokeColor=inherit;" vertex="1" parent="6-W-IEKvUWJ2ygRnt0c9-61">
          <mxGeometry y="26" width="220" height="8" as="geometry" />
        </mxCell>
        <mxCell id="6-W-IEKvUWJ2ygRnt0c9-63" value="+ update(bill: Bill): Bill&lt;div&gt;+ findByName(name: String): Bill&lt;/div&gt;&lt;div&gt;+ delete(bill: Bill): void&lt;/div&gt;&lt;div&gt;+ insert(bill: Bill): Bill&lt;/div&gt;&lt;div&gt;+ findAll(): List&amp;lt;Bill&amp;gt;&lt;/div&gt;" style="text;strokeColor=none;fillColor=none;align=left;verticalAlign=top;spacingLeft=4;spacingRight=4;overflow=hidden;rotatable=0;points=[[0,0.5],[1,0.5]];portConstraint=eastwest;whiteSpace=wrap;html=1;" vertex="1" parent="6-W-IEKvUWJ2ygRnt0c9-61">
          <mxGeometry y="34" width="220" height="86" as="geometry" />
        </mxCell>
        <mxCell id="6-W-IEKvUWJ2ygRnt0c9-64" value="&lt;p style=&quot;margin:0px;margin-top:4px;text-align:center;&quot;&gt;&lt;i&gt;&amp;lt;&amp;lt;Interface&amp;gt;&amp;gt;&lt;/i&gt;&lt;br&gt;&lt;b&gt;Validator&amp;lt;T&amp;gt;&lt;/b&gt;&lt;/p&gt;&lt;hr size=&quot;1&quot; style=&quot;border-style:solid;&quot;&gt;&lt;p style=&quot;margin:0px;margin-left:4px;&quot;&gt;&lt;/p&gt;&lt;p style=&quot;margin:0px;margin-left:4px;&quot;&gt;+ validate(object: T): void&lt;/p&gt;" style="verticalAlign=top;align=left;overflow=fill;html=1;whiteSpace=wrap;" vertex="1" parent="1">
          <mxGeometry x="1680" y="100" width="190" height="70" as="geometry" />
        </mxCell>
        <mxCell id="6-W-IEKvUWJ2ygRnt0c9-65" value="StockValidator" style="swimlane;fontStyle=1;align=center;verticalAlign=top;childLayout=stackLayout;horizontal=1;startSize=26;horizontalStack=0;resizeParent=1;resizeParentMax=0;resizeLast=0;collapsible=1;marginBottom=0;whiteSpace=wrap;html=1;" vertex="1" parent="1">
          <mxGeometry x="1610" y="270" width="180" height="60" as="geometry" />
        </mxCell>
        <mxCell id="6-W-IEKvUWJ2ygRnt0c9-67" value="" style="line;strokeWidth=1;fillColor=none;align=left;verticalAlign=middle;spacingTop=-1;spacingLeft=3;spacingRight=3;rotatable=0;labelPosition=right;points=[];portConstraint=eastwest;strokeColor=inherit;" vertex="1" parent="6-W-IEKvUWJ2ygRnt0c9-65">
          <mxGeometry y="26" width="180" height="8" as="geometry" />
        </mxCell>
        <mxCell id="6-W-IEKvUWJ2ygRnt0c9-68" value="+ validate(object: Product): void" style="text;strokeColor=none;fillColor=none;align=left;verticalAlign=top;spacingLeft=4;spacingRight=4;overflow=hidden;rotatable=0;points=[[0,0.5],[1,0.5]];portConstraint=eastwest;whiteSpace=wrap;html=1;" vertex="1" parent="6-W-IEKvUWJ2ygRnt0c9-65">
          <mxGeometry y="34" width="180" height="26" as="geometry" />
        </mxCell>
        <mxCell id="6-W-IEKvUWJ2ygRnt0c9-76" value="EmalValidator" style="swimlane;fontStyle=1;align=center;verticalAlign=top;childLayout=stackLayout;horizontal=1;startSize=26;horizontalStack=0;resizeParent=1;resizeParentMax=0;resizeLast=0;collapsible=1;marginBottom=0;whiteSpace=wrap;html=1;" vertex="1" parent="1">
          <mxGeometry x="1860" y="260" width="170" height="86" as="geometry" />
        </mxCell>
        <mxCell id="6-W-IEKvUWJ2ygRnt0c9-77" value="- EMAIL_PATTERN: String" style="text;strokeColor=none;fillColor=none;align=left;verticalAlign=top;spacingLeft=4;spacingRight=4;overflow=hidden;rotatable=0;points=[[0,0.5],[1,0.5]];portConstraint=eastwest;whiteSpace=wrap;html=1;" vertex="1" parent="6-W-IEKvUWJ2ygRnt0c9-76">
          <mxGeometry y="26" width="170" height="26" as="geometry" />
        </mxCell>
        <mxCell id="6-W-IEKvUWJ2ygRnt0c9-78" value="" style="line;strokeWidth=1;fillColor=none;align=left;verticalAlign=middle;spacingTop=-1;spacingLeft=3;spacingRight=3;rotatable=0;labelPosition=right;points=[];portConstraint=eastwest;strokeColor=inherit;" vertex="1" parent="6-W-IEKvUWJ2ygRnt0c9-76">
          <mxGeometry y="52" width="170" height="8" as="geometry" />
        </mxCell>
        <mxCell id="6-W-IEKvUWJ2ygRnt0c9-79" value="+ validate(object: Client): void" style="text;strokeColor=none;fillColor=none;align=left;verticalAlign=top;spacingLeft=4;spacingRight=4;overflow=hidden;rotatable=0;points=[[0,0.5],[1,0.5]];portConstraint=eastwest;whiteSpace=wrap;html=1;" vertex="1" parent="6-W-IEKvUWJ2ygRnt0c9-76">
          <mxGeometry y="60" width="170" height="26" as="geometry" />
        </mxCell>
        <mxCell id="6-W-IEKvUWJ2ygRnt0c9-80" value="AbstractBLL&amp;lt;T&amp;gt;" style="swimlane;fontStyle=1;align=center;verticalAlign=top;childLayout=stackLayout;horizontal=1;startSize=26;horizontalStack=0;resizeParent=1;resizeParentMax=0;resizeLast=0;collapsible=1;marginBottom=0;whiteSpace=wrap;html=1;" vertex="1" parent="1">
          <mxGeometry x="1100" y="190" width="380" height="200" as="geometry" />
        </mxCell>
        <mxCell id="6-W-IEKvUWJ2ygRnt0c9-81" value="- type: Class&amp;lt;T&lt;span style=&quot;background-color: transparent; color: light-dark(rgb(0, 0, 0), rgb(255, 255, 255));&quot;&gt;&amp;gt;&lt;/span&gt;&lt;div&gt;&lt;span style=&quot;background-color: transparent; color: light-dark(rgb(0, 0, 0), rgb(255, 255, 255));&quot;&gt;- dao: AbstractDAO&amp;lt;T&amp;gt;&lt;/span&gt;&lt;/div&gt;&lt;div&gt;&lt;span style=&quot;background-color: transparent; color: light-dark(rgb(0, 0, 0), rgb(255, 255, 255));&quot;&gt;- valiators: List&amp;lt;Validator&amp;lt;T&amp;gt;&amp;gt;&lt;/span&gt;&lt;/div&gt;" style="text;strokeColor=none;fillColor=none;align=left;verticalAlign=top;spacingLeft=4;spacingRight=4;overflow=hidden;rotatable=0;points=[[0,0.5],[1,0.5]];portConstraint=eastwest;whiteSpace=wrap;html=1;" vertex="1" parent="6-W-IEKvUWJ2ygRnt0c9-80">
          <mxGeometry y="26" width="380" height="54" as="geometry" />
        </mxCell>
        <mxCell id="6-W-IEKvUWJ2ygRnt0c9-82" value="" style="line;strokeWidth=1;fillColor=none;align=left;verticalAlign=middle;spacingTop=-1;spacingLeft=3;spacingRight=3;rotatable=0;labelPosition=right;points=[];portConstraint=eastwest;strokeColor=inherit;" vertex="1" parent="6-W-IEKvUWJ2ygRnt0c9-80">
          <mxGeometry y="80" width="380" height="8" as="geometry" />
        </mxCell>
        <mxCell id="6-W-IEKvUWJ2ygRnt0c9-83" value="+ AbstractBLL(dao: AbstractDAO&amp;lt;T&amp;gt;, validators: List&amp;lt;Validator&amp;lt;T&amp;gt;&amp;gt;)&lt;div&gt;+ getAll(): List&amp;lt;T&amp;gt;&lt;/div&gt;&lt;div&gt;+ insert(object: T): T&lt;/div&gt;&lt;div&gt;+ update(object: T): T&lt;/div&gt;&lt;div&gt;+ delete(object: T): void&lt;/div&gt;&lt;div&gt;+ findById(id: int): T&lt;/div&gt;&lt;div&gt;+ findByName(name: String): T&lt;/div&gt;" style="text;strokeColor=none;fillColor=none;align=left;verticalAlign=top;spacingLeft=4;spacingRight=4;overflow=hidden;rotatable=0;points=[[0,0.5],[1,0.5]];portConstraint=eastwest;whiteSpace=wrap;html=1;" vertex="1" parent="6-W-IEKvUWJ2ygRnt0c9-80">
          <mxGeometry y="88" width="380" height="112" as="geometry" />
        </mxCell>
        <mxCell id="6-W-IEKvUWJ2ygRnt0c9-84" value="ClientBLL" style="swimlane;fontStyle=1;align=center;verticalAlign=top;childLayout=stackLayout;horizontal=1;startSize=26;horizontalStack=0;resizeParent=1;resizeParentMax=0;resizeLast=0;collapsible=1;marginBottom=0;whiteSpace=wrap;html=1;" vertex="1" parent="1">
          <mxGeometry x="980" y="510" width="160" height="60" as="geometry" />
        </mxCell>
        <mxCell id="6-W-IEKvUWJ2ygRnt0c9-86" value="" style="line;strokeWidth=1;fillColor=none;align=left;verticalAlign=middle;spacingTop=-1;spacingLeft=3;spacingRight=3;rotatable=0;labelPosition=right;points=[];portConstraint=eastwest;strokeColor=inherit;" vertex="1" parent="6-W-IEKvUWJ2ygRnt0c9-84">
          <mxGeometry y="26" width="160" height="8" as="geometry" />
        </mxCell>
        <mxCell id="6-W-IEKvUWJ2ygRnt0c9-87" value="+ ClientBLL()" style="text;strokeColor=none;fillColor=none;align=left;verticalAlign=top;spacingLeft=4;spacingRight=4;overflow=hidden;rotatable=0;points=[[0,0.5],[1,0.5]];portConstraint=eastwest;whiteSpace=wrap;html=1;" vertex="1" parent="6-W-IEKvUWJ2ygRnt0c9-84">
          <mxGeometry y="34" width="160" height="26" as="geometry" />
        </mxCell>
        <mxCell id="6-W-IEKvUWJ2ygRnt0c9-88" value="ProductBLL" style="swimlane;fontStyle=1;align=center;verticalAlign=top;childLayout=stackLayout;horizontal=1;startSize=26;horizontalStack=0;resizeParent=1;resizeParentMax=0;resizeLast=0;collapsible=1;marginBottom=0;whiteSpace=wrap;html=1;" vertex="1" parent="1">
          <mxGeometry x="1180" y="500" width="310" height="80" as="geometry" />
        </mxCell>
        <mxCell id="6-W-IEKvUWJ2ygRnt0c9-89" value="" style="line;strokeWidth=1;fillColor=none;align=left;verticalAlign=middle;spacingTop=-1;spacingLeft=3;spacingRight=3;rotatable=0;labelPosition=right;points=[];portConstraint=eastwest;strokeColor=inherit;" vertex="1" parent="6-W-IEKvUWJ2ygRnt0c9-88">
          <mxGeometry y="26" width="310" height="8" as="geometry" />
        </mxCell>
        <mxCell id="6-W-IEKvUWJ2ygRnt0c9-90" value="+ ProductBLL()&lt;div&gt;+ calculateTotalPrice(productId: int, quantity: int): double&lt;/div&gt;" style="text;strokeColor=none;fillColor=none;align=left;verticalAlign=top;spacingLeft=4;spacingRight=4;overflow=hidden;rotatable=0;points=[[0,0.5],[1,0.5]];portConstraint=eastwest;whiteSpace=wrap;html=1;" vertex="1" parent="6-W-IEKvUWJ2ygRnt0c9-88">
          <mxGeometry y="34" width="310" height="46" as="geometry" />
        </mxCell>
        <mxCell id="6-W-IEKvUWJ2ygRnt0c9-91" value="OrderBLL" style="swimlane;fontStyle=1;align=center;verticalAlign=top;childLayout=stackLayout;horizontal=1;startSize=26;horizontalStack=0;resizeParent=1;resizeParentMax=0;resizeLast=0;collapsible=1;marginBottom=0;whiteSpace=wrap;html=1;" vertex="1" parent="1">
          <mxGeometry x="1530" y="510" width="310" height="90" as="geometry" />
        </mxCell>
        <mxCell id="6-W-IEKvUWJ2ygRnt0c9-92" value="" style="line;strokeWidth=1;fillColor=none;align=left;verticalAlign=middle;spacingTop=-1;spacingLeft=3;spacingRight=3;rotatable=0;labelPosition=right;points=[];portConstraint=eastwest;strokeColor=inherit;" vertex="1" parent="6-W-IEKvUWJ2ygRnt0c9-91">
          <mxGeometry y="26" width="310" height="8" as="geometry" />
        </mxCell>
        <mxCell id="6-W-IEKvUWJ2ygRnt0c9-93" value="+ OrderBLL()&lt;div&gt;+ update(order: Orders): Orders&lt;/div&gt;&lt;div&gt;+ findByName(name: String): Orders&lt;/div&gt;" style="text;strokeColor=none;fillColor=none;align=left;verticalAlign=top;spacingLeft=4;spacingRight=4;overflow=hidden;rotatable=0;points=[[0,0.5],[1,0.5]];portConstraint=eastwest;whiteSpace=wrap;html=1;" vertex="1" parent="6-W-IEKvUWJ2ygRnt0c9-91">
          <mxGeometry y="34" width="310" height="56" as="geometry" />
        </mxCell>
        <mxCell id="6-W-IEKvUWJ2ygRnt0c9-94" value="BillBLL" style="swimlane;fontStyle=1;align=center;verticalAlign=top;childLayout=stackLayout;horizontal=1;startSize=26;horizontalStack=0;resizeParent=1;resizeParentMax=0;resizeLast=0;collapsible=1;marginBottom=0;whiteSpace=wrap;html=1;" vertex="1" parent="1">
          <mxGeometry x="1890" y="500" width="310" height="100" as="geometry" />
        </mxCell>
        <mxCell id="6-W-IEKvUWJ2ygRnt0c9-95" value="" style="line;strokeWidth=1;fillColor=none;align=left;verticalAlign=middle;spacingTop=-1;spacingLeft=3;spacingRight=3;rotatable=0;labelPosition=right;points=[];portConstraint=eastwest;strokeColor=inherit;" vertex="1" parent="6-W-IEKvUWJ2ygRnt0c9-94">
          <mxGeometry y="26" width="310" height="8" as="geometry" />
        </mxCell>
        <mxCell id="6-W-IEKvUWJ2ygRnt0c9-96" value="+ BillBLL()&lt;div&gt;+ update(bill: Bill): Bill&lt;/div&gt;&lt;div&gt;+ delete(bill: Bill): void&lt;/div&gt;&lt;div&gt;+ findByName(name: String): Bill&lt;/div&gt;" style="text;strokeColor=none;fillColor=none;align=left;verticalAlign=top;spacingLeft=4;spacingRight=4;overflow=hidden;rotatable=0;points=[[0,0.5],[1,0.5]];portConstraint=eastwest;whiteSpace=wrap;html=1;" vertex="1" parent="6-W-IEKvUWJ2ygRnt0c9-94">
          <mxGeometry y="34" width="310" height="66" as="geometry" />
        </mxCell>
        <mxCell id="6-W-IEKvUWJ2ygRnt0c9-97" value="" style="endArrow=block;endSize=16;endFill=0;html=1;rounded=0;exitX=0.5;exitY=0;exitDx=0;exitDy=0;entryX=1;entryY=1;entryDx=0;entryDy=0;entryPerimeter=0;" edge="1" parent="1" source="6-W-IEKvUWJ2ygRnt0c9-61" target="6-W-IEKvUWJ2ygRnt0c9-50">
          <mxGeometry width="160" relative="1" as="geometry">
            <mxPoint x="540" y="470" as="sourcePoint" />
            <mxPoint x="700" y="470" as="targetPoint" />
          </mxGeometry>
        </mxCell>
        <mxCell id="6-W-IEKvUWJ2ygRnt0c9-98" value="" style="endArrow=block;endSize=16;endFill=0;html=1;rounded=0;entryX=0.354;entryY=1.014;entryDx=0;entryDy=0;entryPerimeter=0;" edge="1" parent="1" target="6-W-IEKvUWJ2ygRnt0c9-50">
          <mxGeometry width="160" relative="1" as="geometry">
            <mxPoint x="520" y="460" as="sourcePoint" />
            <mxPoint x="700" y="470" as="targetPoint" />
          </mxGeometry>
        </mxCell>
        <mxCell id="6-W-IEKvUWJ2ygRnt0c9-99" value="" style="endArrow=block;endSize=16;endFill=0;html=1;rounded=0;exitX=0.75;exitY=0;exitDx=0;exitDy=0;entryX=0.091;entryY=1.008;entryDx=0;entryDy=0;entryPerimeter=0;" edge="1" parent="1" source="6-W-IEKvUWJ2ygRnt0c9-55" target="6-W-IEKvUWJ2ygRnt0c9-50">
          <mxGeometry width="160" relative="1" as="geometry">
            <mxPoint x="540" y="470" as="sourcePoint" />
            <mxPoint x="700" y="470" as="targetPoint" />
          </mxGeometry>
        </mxCell>
        <mxCell id="6-W-IEKvUWJ2ygRnt0c9-100" value="" style="endArrow=block;endSize=16;endFill=0;html=1;rounded=0;exitX=1;exitY=0;exitDx=0;exitDy=0;entryX=0;entryY=1;entryDx=0;entryDy=0;entryPerimeter=0;" edge="1" parent="1" source="6-W-IEKvUWJ2ygRnt0c9-51" target="6-W-IEKvUWJ2ygRnt0c9-50">
          <mxGeometry width="160" relative="1" as="geometry">
            <mxPoint x="540" y="470" as="sourcePoint" />
            <mxPoint x="700" y="470" as="targetPoint" />
          </mxGeometry>
        </mxCell>
        <mxCell id="6-W-IEKvUWJ2ygRnt0c9-101" value="" style="endArrow=open;endSize=12;dashed=1;html=1;rounded=0;entryX=1;entryY=0.5;entryDx=0;entryDy=0;exitX=-0.008;exitY=0.005;exitDx=0;exitDy=0;exitPerimeter=0;" edge="1" parent="1" source="6-W-IEKvUWJ2ygRnt0c9-50" target="6-W-IEKvUWJ2ygRnt0c9-44">
          <mxGeometry width="160" relative="1" as="geometry">
            <mxPoint x="540" y="470" as="sourcePoint" />
            <mxPoint x="700" y="470" as="targetPoint" />
          </mxGeometry>
        </mxCell>
        <mxCell id="6-W-IEKvUWJ2ygRnt0c9-102" value="" style="endArrow=diamondThin;endFill=1;endSize=24;html=1;rounded=0;entryX=1.017;entryY=-0.063;entryDx=0;entryDy=0;entryPerimeter=0;exitX=0;exitY=0.5;exitDx=0;exitDy=0;" edge="1" parent="1" source="6-W-IEKvUWJ2ygRnt0c9-81" target="6-W-IEKvUWJ2ygRnt0c9-48">
          <mxGeometry width="160" relative="1" as="geometry">
            <mxPoint x="780" y="560" as="sourcePoint" />
            <mxPoint x="940" y="560" as="targetPoint" />
          </mxGeometry>
        </mxCell>
        <mxCell id="6-W-IEKvUWJ2ygRnt0c9-103" value="" style="endArrow=block;endSize=16;endFill=0;html=1;rounded=0;exitX=0.367;exitY=-0.031;exitDx=0;exitDy=0;exitPerimeter=0;entryX=-0.003;entryY=1.009;entryDx=0;entryDy=0;entryPerimeter=0;" edge="1" parent="1" source="6-W-IEKvUWJ2ygRnt0c9-84" target="6-W-IEKvUWJ2ygRnt0c9-83">
          <mxGeometry width="160" relative="1" as="geometry">
            <mxPoint x="1280" y="510" as="sourcePoint" />
            <mxPoint x="1440" y="510" as="targetPoint" />
          </mxGeometry>
        </mxCell>
        <mxCell id="6-W-IEKvUWJ2ygRnt0c9-105" value="" style="endArrow=block;endSize=16;endFill=0;html=1;rounded=0;exitX=0.25;exitY=0;exitDx=0;exitDy=0;entryX=0.421;entryY=1.018;entryDx=0;entryDy=0;entryPerimeter=0;" edge="1" parent="1" source="6-W-IEKvUWJ2ygRnt0c9-88" target="6-W-IEKvUWJ2ygRnt0c9-83">
          <mxGeometry width="160" relative="1" as="geometry">
            <mxPoint x="1340" y="360" as="sourcePoint" />
            <mxPoint x="1500" y="360" as="targetPoint" />
          </mxGeometry>
        </mxCell>
        <mxCell id="6-W-IEKvUWJ2ygRnt0c9-106" value="" style="endArrow=block;endSize=16;endFill=0;html=1;rounded=0;entryX=0.847;entryY=1.018;entryDx=0;entryDy=0;entryPerimeter=0;" edge="1" parent="1" target="6-W-IEKvUWJ2ygRnt0c9-83">
          <mxGeometry width="160" relative="1" as="geometry">
            <mxPoint x="1540" y="507" as="sourcePoint" />
            <mxPoint x="1500" y="360" as="targetPoint" />
          </mxGeometry>
        </mxCell>
        <mxCell id="6-W-IEKvUWJ2ygRnt0c9-107" value="" style="endArrow=block;endSize=16;endFill=0;html=1;rounded=0;exitX=0;exitY=0;exitDx=0;exitDy=0;entryX=0.995;entryY=0.92;entryDx=0;entryDy=0;entryPerimeter=0;" edge="1" parent="1" source="6-W-IEKvUWJ2ygRnt0c9-94" target="6-W-IEKvUWJ2ygRnt0c9-83">
          <mxGeometry width="160" relative="1" as="geometry">
            <mxPoint x="1340" y="360" as="sourcePoint" />
            <mxPoint x="1500" y="360" as="targetPoint" />
          </mxGeometry>
        </mxCell>
        <mxCell id="6-W-IEKvUWJ2ygRnt0c9-108" value="" style="endArrow=open;endSize=12;dashed=1;html=1;rounded=0;exitX=0.426;exitY=0.967;exitDx=0;exitDy=0;exitPerimeter=0;entryX=0.663;entryY=1.028;entryDx=0;entryDy=0;entryPerimeter=0;" edge="1" parent="1" source="6-W-IEKvUWJ2ygRnt0c9-96" target="6-W-IEKvUWJ2ygRnt0c9-63">
          <mxGeometry width="160" relative="1" as="geometry">
            <mxPoint x="2020" y="650" as="sourcePoint" />
            <mxPoint x="860" y="490" as="targetPoint" />
            <Array as="points">
              <mxPoint x="2020" y="650" />
              <mxPoint x="1180" y="640" />
              <mxPoint x="836" y="640" />
            </Array>
          </mxGeometry>
        </mxCell>
        <mxCell id="6-W-IEKvUWJ2ygRnt0c9-110" value="" style="endArrow=open;endSize=12;dashed=1;html=1;rounded=0;exitX=0.426;exitY=0.967;exitDx=0;exitDy=0;exitPerimeter=0;entryX=0.297;entryY=1.129;entryDx=0;entryDy=0;entryPerimeter=0;" edge="1" parent="1" target="6-W-IEKvUWJ2ygRnt0c9-60">
          <mxGeometry width="160" relative="1" as="geometry">
            <mxPoint x="1676" y="606" as="sourcePoint" />
            <mxPoint x="490" y="590" as="targetPoint" />
            <Array as="points">
              <mxPoint x="1674" y="658" />
              <mxPoint x="834" y="648" />
              <mxPoint x="490" y="648" />
            </Array>
          </mxGeometry>
        </mxCell>
        <mxCell id="6-W-IEKvUWJ2ygRnt0c9-111" value="" style="endArrow=open;endSize=12;dashed=1;html=1;rounded=0;exitX=0.435;exitY=1.064;exitDx=0;exitDy=0;exitPerimeter=0;entryX=0.297;entryY=1.129;entryDx=0;entryDy=0;entryPerimeter=0;" edge="1" parent="1" source="6-W-IEKvUWJ2ygRnt0c9-87">
          <mxGeometry width="160" relative="1" as="geometry">
            <mxPoint x="1463" y="583" as="sourcePoint" />
            <mxPoint x="277" y="514" as="targetPoint" />
            <Array as="points">
              <mxPoint x="1050" y="600" />
              <mxPoint x="1050" y="620" />
              <mxPoint x="621" y="625" />
              <mxPoint x="277" y="625" />
            </Array>
          </mxGeometry>
        </mxCell>
        <mxCell id="6-W-IEKvUWJ2ygRnt0c9-112" value="" style="endArrow=open;endSize=12;dashed=1;html=1;rounded=0;exitX=0.426;exitY=0.967;exitDx=0;exitDy=0;exitPerimeter=0;entryX=0.297;entryY=1.129;entryDx=0;entryDy=0;entryPerimeter=0;" edge="1" parent="1">
          <mxGeometry width="160" relative="1" as="geometry">
            <mxPoint x="1306" y="579" as="sourcePoint" />
            <mxPoint x="120" y="510" as="targetPoint" />
            <Array as="points">
              <mxPoint x="1304" y="631" />
              <mxPoint x="464" y="621" />
              <mxPoint x="120" y="621" />
            </Array>
          </mxGeometry>
        </mxCell>
        <mxCell id="6-W-IEKvUWJ2ygRnt0c9-114" value="" style="endArrow=diamondThin;endFill=1;endSize=24;html=1;rounded=0;exitX=0.675;exitY=1.256;exitDx=0;exitDy=0;exitPerimeter=0;entryX=0.956;entryY=0.015;entryDx=0;entryDy=0;entryPerimeter=0;" edge="1" parent="1" source="6-W-IEKvUWJ2ygRnt0c9-87" target="6-W-IEKvUWJ2ygRnt0c9-22">
          <mxGeometry width="160" relative="1" as="geometry">
            <mxPoint x="1220" y="900" as="sourcePoint" />
            <mxPoint x="1380" y="900" as="targetPoint" />
          </mxGeometry>
        </mxCell>
        <mxCell id="6-W-IEKvUWJ2ygRnt0c9-115" value="" style="endArrow=diamondThin;endFill=1;endSize=24;html=1;rounded=0;exitX=0.676;exitY=1.109;exitDx=0;exitDy=0;exitPerimeter=0;entryX=0.5;entryY=0;entryDx=0;entryDy=0;" edge="1" parent="1" source="6-W-IEKvUWJ2ygRnt0c9-90" target="6-W-IEKvUWJ2ygRnt0c9-38">
          <mxGeometry width="160" relative="1" as="geometry">
            <mxPoint x="1220" y="900" as="sourcePoint" />
            <mxPoint x="1380" y="900" as="targetPoint" />
          </mxGeometry>
        </mxCell>
        <mxCell id="6-W-IEKvUWJ2ygRnt0c9-116" value="" style="endArrow=diamondThin;endFill=1;endSize=24;html=1;rounded=0;exitX=0.848;exitY=1.03;exitDx=0;exitDy=0;exitPerimeter=0;entryX=0.5;entryY=0;entryDx=0;entryDy=0;" edge="1" parent="1" source="6-W-IEKvUWJ2ygRnt0c9-93" target="6-W-IEKvUWJ2ygRnt0c9-34">
          <mxGeometry width="160" relative="1" as="geometry">
            <mxPoint x="1220" y="900" as="sourcePoint" />
            <mxPoint x="1380" y="900" as="targetPoint" />
          </mxGeometry>
        </mxCell>
        <mxCell id="6-W-IEKvUWJ2ygRnt0c9-117" value="" style="endArrow=diamondThin;endFill=1;endSize=24;html=1;rounded=0;exitX=0.961;exitY=1.101;exitDx=0;exitDy=0;exitPerimeter=0;entryX=0.75;entryY=0;entryDx=0;entryDy=0;" edge="1" parent="1" source="6-W-IEKvUWJ2ygRnt0c9-96" target="6-W-IEKvUWJ2ygRnt0c9-18">
          <mxGeometry width="160" relative="1" as="geometry">
            <mxPoint x="1220" y="900" as="sourcePoint" />
            <mxPoint x="1380" y="900" as="targetPoint" />
          </mxGeometry>
        </mxCell>
        <mxCell id="6-W-IEKvUWJ2ygRnt0c9-118" value="" style="html=1;verticalAlign=bottom;endArrow=block;curved=0;rounded=0;exitX=0.3;exitY=1.055;exitDx=0;exitDy=0;exitPerimeter=0;entryX=0.122;entryY=0;entryDx=0;entryDy=0;entryPerimeter=0;" edge="1" parent="1" source="6-W-IEKvUWJ2ygRnt0c9-25" target="6-W-IEKvUWJ2ygRnt0c9-26">
          <mxGeometry width="80" relative="1" as="geometry">
            <mxPoint x="1260" y="900" as="sourcePoint" />
            <mxPoint x="1340" y="900" as="targetPoint" />
          </mxGeometry>
        </mxCell>
        <mxCell id="6-W-IEKvUWJ2ygRnt0c9-119" value="" style="html=1;verticalAlign=bottom;endArrow=block;curved=0;rounded=0;exitX=0.3;exitY=1.055;exitDx=0;exitDy=0;exitPerimeter=0;entryX=0.5;entryY=0;entryDx=0;entryDy=0;" edge="1" parent="1" target="6-W-IEKvUWJ2ygRnt0c9-26">
          <mxGeometry width="80" relative="1" as="geometry">
            <mxPoint x="1220" y="1100" as="sourcePoint" />
            <mxPoint x="1218" y="1313" as="targetPoint" />
          </mxGeometry>
        </mxCell>
        <mxCell id="6-W-IEKvUWJ2ygRnt0c9-120" value="" style="html=1;verticalAlign=bottom;endArrow=block;curved=0;rounded=0;exitX=0.3;exitY=1.055;exitDx=0;exitDy=0;exitPerimeter=0;entryX=0.75;entryY=0;entryDx=0;entryDy=0;" edge="1" parent="1" target="6-W-IEKvUWJ2ygRnt0c9-26">
          <mxGeometry width="80" relative="1" as="geometry">
            <mxPoint x="1700" y="1090" as="sourcePoint" />
            <mxPoint x="1490" y="1310" as="targetPoint" />
          </mxGeometry>
        </mxCell>
        <mxCell id="6-W-IEKvUWJ2ygRnt0c9-121" value="" style="html=1;verticalAlign=bottom;endArrow=block;curved=0;rounded=0;exitX=0.5;exitY=1;exitDx=0;exitDy=0;exitPerimeter=0;entryX=1;entryY=0;entryDx=0;entryDy=0;" edge="1" parent="1" source="6-W-IEKvUWJ2ygRnt0c9-21" target="6-W-IEKvUWJ2ygRnt0c9-26">
          <mxGeometry x="-0.0001" width="80" relative="1" as="geometry">
            <mxPoint x="1590" y="1090" as="sourcePoint" />
            <mxPoint x="2190" y="1210" as="targetPoint" />
            <Array as="points">
              <mxPoint x="2200" y="1190" />
            </Array>
            <mxPoint as="offset" />
          </mxGeometry>
        </mxCell>
        <mxCell id="6-W-IEKvUWJ2ygRnt0c9-122" value="" style="endArrow=open;endSize=12;dashed=1;html=1;rounded=0;exitX=-0.006;exitY=1.021;exitDx=0;exitDy=0;exitPerimeter=0;entryX=0.855;entryY=1.033;entryDx=0;entryDy=0;entryPerimeter=0;" edge="1" parent="1" source="6-W-IEKvUWJ2ygRnt0c9-31" target="6-W-IEKvUWJ2ygRnt0c9-25">
          <mxGeometry width="160" relative="1" as="geometry">
            <mxPoint x="1450" y="1050" as="sourcePoint" />
            <mxPoint x="1610" y="1050" as="targetPoint" />
          </mxGeometry>
        </mxCell>
        <mxCell id="6-W-IEKvUWJ2ygRnt0c9-123" value="" style="endArrow=open;endSize=12;dashed=1;html=1;rounded=0;exitX=0.208;exitY=-0.004;exitDx=0;exitDy=0;exitPerimeter=0;entryX=0.668;entryY=1.033;entryDx=0;entryDy=0;entryPerimeter=0;" edge="1" parent="1" source="6-W-IEKvUWJ2ygRnt0c9-30" target="6-W-IEKvUWJ2ygRnt0c9-41">
          <mxGeometry width="160" relative="1" as="geometry">
            <mxPoint x="1450" y="1050" as="sourcePoint" />
            <mxPoint x="1610" y="1050" as="targetPoint" />
          </mxGeometry>
        </mxCell>
        <mxCell id="6-W-IEKvUWJ2ygRnt0c9-124" value="" style="endArrow=open;endSize=12;dashed=1;html=1;rounded=0;entryX=0.668;entryY=1.033;entryDx=0;entryDy=0;entryPerimeter=0;" edge="1" parent="1">
          <mxGeometry width="160" relative="1" as="geometry">
            <mxPoint x="1720" y="1305" as="sourcePoint" />
            <mxPoint x="1750" y="1100" as="targetPoint" />
            <Array as="points" />
          </mxGeometry>
        </mxCell>
        <mxCell id="6-W-IEKvUWJ2ygRnt0c9-125" value="" style="endArrow=open;endSize=12;dashed=1;html=1;rounded=0;entryX=0.754;entryY=1.056;entryDx=0;entryDy=0;entryPerimeter=0;" edge="1" parent="1" target="6-W-IEKvUWJ2ygRnt0c9-21">
          <mxGeometry width="160" relative="1" as="geometry">
            <mxPoint x="1810" y="1320" as="sourcePoint" />
            <mxPoint x="1840" y="1115" as="targetPoint" />
            <Array as="points" />
          </mxGeometry>
        </mxCell>
        <mxCell id="6-W-IEKvUWJ2ygRnt0c9-126" value="" style="endArrow=block;dashed=1;endFill=0;endSize=12;html=1;rounded=0;entryX=0.19;entryY=1.034;entryDx=0;entryDy=0;entryPerimeter=0;exitX=0.75;exitY=0;exitDx=0;exitDy=0;" edge="1" parent="1" source="6-W-IEKvUWJ2ygRnt0c9-65" target="6-W-IEKvUWJ2ygRnt0c9-64">
          <mxGeometry width="160" relative="1" as="geometry">
            <mxPoint x="1060" y="740" as="sourcePoint" />
            <mxPoint x="1220" y="740" as="targetPoint" />
          </mxGeometry>
        </mxCell>
        <mxCell id="6-W-IEKvUWJ2ygRnt0c9-127" value="" style="endArrow=block;dashed=1;endFill=0;endSize=12;html=1;rounded=0;entryX=0.19;entryY=1.034;entryDx=0;entryDy=0;entryPerimeter=0;" edge="1" parent="1">
          <mxGeometry width="160" relative="1" as="geometry">
            <mxPoint x="1899" y="260" as="sourcePoint" />
            <mxPoint x="1870" y="172" as="targetPoint" />
          </mxGeometry>
        </mxCell>
        <mxCell id="6-W-IEKvUWJ2ygRnt0c9-128" value="" style="html=1;verticalAlign=bottom;endArrow=block;curved=0;rounded=0;exitX=1;exitY=0;exitDx=0;exitDy=0;entryX=-0.018;entryY=0.644;entryDx=0;entryDy=0;entryPerimeter=0;" edge="1" parent="1" source="6-W-IEKvUWJ2ygRnt0c9-80" target="6-W-IEKvUWJ2ygRnt0c9-64">
          <mxGeometry width="80" relative="1" as="geometry">
            <mxPoint x="1590" y="350" as="sourcePoint" />
            <mxPoint x="1670" y="350" as="targetPoint" />
          </mxGeometry>
        </mxCell>
        <mxCell id="6-W-IEKvUWJ2ygRnt0c9-129" value="" style="endArrow=diamondThin;endFill=1;endSize=24;html=1;rounded=0;exitX=0.807;exitY=1.029;exitDx=0;exitDy=0;exitPerimeter=0;entryX=0;entryY=0;entryDx=0;entryDy=0;" edge="1" parent="1" source="6-W-IEKvUWJ2ygRnt0c9-87" target="6-W-IEKvUWJ2ygRnt0c9-34">
          <mxGeometry width="160" relative="1" as="geometry">
            <mxPoint x="1098" y="587" as="sourcePoint" />
            <mxPoint x="1096" y="785" as="targetPoint" />
          </mxGeometry>
        </mxCell>
        <mxCell id="6-W-IEKvUWJ2ygRnt0c9-130" value="" style="endArrow=diamondThin;endFill=1;endSize=24;html=1;rounded=0;exitX=0.936;exitY=1.055;exitDx=0;exitDy=0;exitPerimeter=0;entryX=0.167;entryY=0;entryDx=0;entryDy=0;entryPerimeter=0;" edge="1" parent="1" source="6-W-IEKvUWJ2ygRnt0c9-90" target="6-W-IEKvUWJ2ygRnt0c9-34">
          <mxGeometry width="160" relative="1" as="geometry">
            <mxPoint x="1400" y="595" as="sourcePoint" />
            <mxPoint x="1410" y="780" as="targetPoint" />
          </mxGeometry>
        </mxCell>
        <mxCell id="6-W-IEKvUWJ2ygRnt0c9-131" value="" style="endArrow=diamondThin;endFill=1;endSize=24;html=1;rounded=0;exitX=0.798;exitY=1.056;exitDx=0;exitDy=0;exitPerimeter=0;entryX=1;entryY=0;entryDx=0;entryDy=0;" edge="1" parent="1" source="6-W-IEKvUWJ2ygRnt0c9-96" target="6-W-IEKvUWJ2ygRnt0c9-34">
          <mxGeometry width="160" relative="1" as="geometry">
            <mxPoint x="2198" y="617" as="sourcePoint" />
            <mxPoint x="2280" y="790" as="targetPoint" />
          </mxGeometry>
        </mxCell>
        <mxCell id="6-W-IEKvUWJ2ygRnt0c9-132" value="" style="endArrow=open;endSize=12;dashed=1;html=1;rounded=0;exitX=0.597;exitY=1.037;exitDx=0;exitDy=0;exitPerimeter=0;entryX=0;entryY=0;entryDx=0;entryDy=0;" edge="1" parent="1" source="6-W-IEKvUWJ2ygRnt0c9-56" target="6-W-IEKvUWJ2ygRnt0c9-6">
          <mxGeometry width="160" relative="1" as="geometry">
            <mxPoint x="390" y="700" as="sourcePoint" />
            <mxPoint x="550" y="700" as="targetPoint" />
          </mxGeometry>
        </mxCell>
        <mxCell id="6-W-IEKvUWJ2ygRnt0c9-133" value="" style="endArrow=open;endSize=12;dashed=1;html=1;rounded=0;exitX=0.076;exitY=1.002;exitDx=0;exitDy=0;exitPerimeter=0;entryX=0.5;entryY=0;entryDx=0;entryDy=0;" edge="1" parent="1" source="6-W-IEKvUWJ2ygRnt0c9-63" target="6-W-IEKvUWJ2ygRnt0c9-2">
          <mxGeometry width="160" relative="1" as="geometry">
            <mxPoint x="390" y="700" as="sourcePoint" />
            <mxPoint x="550" y="700" as="targetPoint" />
          </mxGeometry>
        </mxCell>
        <mxCell id="6-W-IEKvUWJ2ygRnt0c9-134" value="" style="endArrow=open;endSize=12;dashed=1;html=1;rounded=0;exitX=0;exitY=1;exitDx=0;exitDy=0;entryX=0.094;entryY=-0.015;entryDx=0;entryDy=0;entryPerimeter=0;" edge="1" parent="1" source="6-W-IEKvUWJ2ygRnt0c9-51" target="6-W-IEKvUWJ2ygRnt0c9-10">
          <mxGeometry width="160" relative="1" as="geometry">
            <mxPoint x="390" y="840" as="sourcePoint" />
            <mxPoint x="550" y="840" as="targetPoint" />
          </mxGeometry>
        </mxCell>
        <mxCell id="6-W-IEKvUWJ2ygRnt0c9-135" value="" style="endArrow=open;endSize=12;dashed=1;html=1;rounded=0;exitX=-0.019;exitY=1.064;exitDx=0;exitDy=0;exitPerimeter=0;entryX=0.708;entryY=0;entryDx=0;entryDy=0;entryPerimeter=0;" edge="1" parent="1" source="6-W-IEKvUWJ2ygRnt0c9-60" target="6-W-IEKvUWJ2ygRnt0c9-14">
          <mxGeometry width="160" relative="1" as="geometry">
            <mxPoint x="390" y="840" as="sourcePoint" />
            <mxPoint x="550" y="840" as="targetPoint" />
          </mxGeometry>
        </mxCell>
        <mxCell id="6-W-IEKvUWJ2ygRnt0c9-136" value="" style="endArrow=open;endSize=12;html=1;rounded=0;exitX=0.659;exitY=1.08;exitDx=0;exitDy=0;exitPerimeter=0;entryX=1.019;entryY=0.146;entryDx=0;entryDy=0;entryPerimeter=0;" edge="1" parent="1" source="6-W-IEKvUWJ2ygRnt0c9-96" target="6-W-IEKvUWJ2ygRnt0c9-3">
          <mxGeometry width="160" relative="1" as="geometry">
            <mxPoint x="520" y="650" as="sourcePoint" />
            <mxPoint x="680" y="650" as="targetPoint" />
            <Array as="points">
              <mxPoint x="2094" y="700" />
            </Array>
          </mxGeometry>
        </mxCell>
        <mxCell id="6-W-IEKvUWJ2ygRnt0c9-137" value="" style="endArrow=open;endSize=12;html=1;rounded=0;exitX=0.659;exitY=1.08;exitDx=0;exitDy=0;exitPerimeter=0;entryX=0.37;entryY=0.017;entryDx=0;entryDy=0;entryPerimeter=0;" edge="1" parent="1" target="6-W-IEKvUWJ2ygRnt0c9-6">
          <mxGeometry width="160" relative="1" as="geometry">
            <mxPoint x="1071" y="570" as="sourcePoint" />
            <mxPoint x="-240" y="679" as="targetPoint" />
            <Array as="points">
              <mxPoint x="1071" y="665" />
              <mxPoint x="450" y="660" />
              <mxPoint x="450" y="730" />
            </Array>
          </mxGeometry>
        </mxCell>
        <mxCell id="6-W-IEKvUWJ2ygRnt0c9-139" value="" style="endArrow=open;endSize=12;html=1;rounded=0;exitX=0.284;exitY=1.079;exitDx=0;exitDy=0;exitPerimeter=0;" edge="1" parent="1" source="6-W-IEKvUWJ2ygRnt0c9-93" target="6-W-IEKvUWJ2ygRnt0c9-15">
          <mxGeometry width="160" relative="1" as="geometry">
            <mxPoint x="1532" y="1040" as="sourcePoint" />
            <mxPoint x="400" y="1220" as="targetPoint" />
            <Array as="points">
              <mxPoint x="1600" y="680" />
              <mxPoint x="1040" y="720" />
              <mxPoint x="700" y="790" />
              <mxPoint x="680" y="1093" />
              <mxPoint x="400" y="1110" />
            </Array>
          </mxGeometry>
        </mxCell>
      </root>
    </mxGraphModel>
  </diagram>
</mxfile>
